<mxfile host="app.diagrams.net" agent="Mozilla/5.0 (Windows NT 10.0; Win64; x64) AppleWebKit/537.36 (KHTML, like Gecko) Chrome/136.0.0.0 Safari/537.36 Edg/136.0.0.0" version="27.1.1">
  <diagram name="Page-1" id="KmbGgYlYGXzT0_UpFZPA">
    <mxGraphModel dx="1378" dy="832" grid="1" gridSize="10" guides="1" tooltips="1" connect="1" arrows="1" fold="1" page="1" pageScale="1" pageWidth="827" pageHeight="583" math="0" shadow="0">
      <root>
        <mxCell id="0" />
        <mxCell id="1" parent="0" />
        <mxCell id="Zue0cw8jh71YgsHalFJU-1" value="Utilisateur" style="ellipse;whiteSpace=wrap;html=1;fillColor=#d5e8d4;strokeColor=#82b366;" parent="1" vertex="1">
          <mxGeometry x="60" y="80" width="120" height="80" as="geometry" />
        </mxCell>
        <mxCell id="Zue0cw8jh71YgsHalFJU-9" style="edgeStyle=orthogonalEdgeStyle;rounded=0;orthogonalLoop=1;jettySize=auto;html=1;entryX=1;entryY=0.5;entryDx=0;entryDy=0;strokeWidth=2;exitX=0.146;exitY=1;exitDx=0;exitDy=0;exitPerimeter=0;" parent="1" source="Zue0cw8jh71YgsHalFJU-8" target="QbgpvLvngL5jS_qIekFw-13" edge="1">
          <mxGeometry relative="1" as="geometry">
            <mxPoint x="720" y="280" as="sourcePoint" />
          </mxGeometry>
        </mxCell>
        <mxCell id="Zue0cw8jh71YgsHalFJU-5" value="S’authentifier.&lt;div&gt;avec email/mot de passe&amp;nbsp;&lt;span style=&quot;background-color: transparent; color: light-dark(rgb(0, 0, 0), rgb(255, 255, 255));&quot;&gt;invalide&lt;/span&gt;&lt;/div&gt;" style="shape=hexagon;perimeter=hexagonPerimeter2;whiteSpace=wrap;html=1;fixedSize=1;fillColor=#e1d5e7;strokeColor=#9673a6;" parent="1" vertex="1">
          <mxGeometry x="450" y="160" width="120" height="80" as="geometry" />
        </mxCell>
        <mxCell id="Zue0cw8jh71YgsHalFJU-8" value="Message Erreur&lt;div&gt;&amp;nbsp;d&#39;identifiant(s)&lt;div&gt;email/mot de passe&lt;/div&gt;&lt;/div&gt;" style="shape=hexagon;perimeter=hexagonPerimeter2;whiteSpace=wrap;html=1;fixedSize=1;fillColor=#e1d5e7;strokeColor=#9673a6;" parent="1" vertex="1">
          <mxGeometry x="730" y="160" width="130" height="80" as="geometry" />
        </mxCell>
        <mxCell id="Zue0cw8jh71YgsHalFJU-16" value="" style="edgeStyle=orthogonalEdgeStyle;rounded=0;orthogonalLoop=1;jettySize=auto;html=1;strokeWidth=2;entryX=0;entryY=0.5;entryDx=0;entryDy=0;" parent="1" source="Zue0cw8jh71YgsHalFJU-13" target="Zue0cw8jh71YgsHalFJU-17" edge="1">
          <mxGeometry relative="1" as="geometry">
            <mxPoint x="440" y="440" as="targetPoint" />
          </mxGeometry>
        </mxCell>
        <mxCell id="Zue0cw8jh71YgsHalFJU-13" value="S’authentifier.&lt;div&gt;avec email/mot de passe&amp;nbsp;&lt;span style=&quot;background-color: transparent; color: light-dark(rgb(0, 0, 0), rgb(255, 255, 255));&quot;&gt;valide&lt;/span&gt;&lt;/div&gt;" style="shape=hexagon;perimeter=hexagonPerimeter2;whiteSpace=wrap;html=1;fixedSize=1;fillColor=#f8cecc;strokeColor=#b85450;" parent="1" vertex="1">
          <mxGeometry x="380" y="360" width="120" height="80" as="geometry" />
        </mxCell>
        <mxCell id="Zue0cw8jh71YgsHalFJU-17" value="Accés a la page Dashboard" style="shape=hexagon;perimeter=hexagonPerimeter2;whiteSpace=wrap;html=1;fixedSize=1;fillColor=#f8cecc;strokeColor=#b85450;" parent="1" vertex="1">
          <mxGeometry x="680" y="360" width="120" height="80" as="geometry" />
        </mxCell>
        <mxCell id="Zue0cw8jh71YgsHalFJU-22" value="" style="edgeStyle=orthogonalEdgeStyle;rounded=0;orthogonalLoop=1;jettySize=auto;html=1;strokeWidth=2;" parent="1" source="Zue0cw8jh71YgsHalFJU-19" target="Zue0cw8jh71YgsHalFJU-21" edge="1">
          <mxGeometry relative="1" as="geometry" />
        </mxCell>
        <mxCell id="Zue0cw8jh71YgsHalFJU-19" value="Mot de passe&amp;nbsp;&lt;div&gt;oublier&amp;nbsp;&lt;/div&gt;" style="shape=hexagon;perimeter=hexagonPerimeter2;whiteSpace=wrap;html=1;fixedSize=1;fillColor=#ffe6cc;strokeColor=#d79b00;" parent="1" vertex="1">
          <mxGeometry x="60" y="560" width="120" height="80" as="geometry" />
        </mxCell>
        <mxCell id="Zue0cw8jh71YgsHalFJU-20" style="edgeStyle=orthogonalEdgeStyle;rounded=0;orthogonalLoop=1;jettySize=auto;html=1;entryX=0.5;entryY=0;entryDx=0;entryDy=0;strokeWidth=2;" parent="1" source="Zue0cw8jh71YgsHalFJU-1" target="Zue0cw8jh71YgsHalFJU-19" edge="1">
          <mxGeometry relative="1" as="geometry">
            <mxPoint x="120" y="470" as="targetPoint" />
            <Array as="points" />
          </mxGeometry>
        </mxCell>
        <mxCell id="Zue0cw8jh71YgsHalFJU-24" value="" style="edgeStyle=orthogonalEdgeStyle;rounded=0;orthogonalLoop=1;jettySize=auto;html=1;" parent="1" source="Zue0cw8jh71YgsHalFJU-21" target="Zue0cw8jh71YgsHalFJU-23" edge="1">
          <mxGeometry relative="1" as="geometry" />
        </mxCell>
        <mxCell id="Ng6ufq9dJBZELyTH2kSp-41" value="" style="edgeStyle=orthogonalEdgeStyle;rounded=0;orthogonalLoop=1;jettySize=auto;html=1;strokeWidth=2;" parent="1" source="Zue0cw8jh71YgsHalFJU-21" target="Zue0cw8jh71YgsHalFJU-23" edge="1">
          <mxGeometry relative="1" as="geometry" />
        </mxCell>
        <mxCell id="Zue0cw8jh71YgsHalFJU-21" value="envoi vers reinitialisation&amp;nbsp;&lt;div&gt;mot de passe&amp;nbsp;&amp;nbsp;&lt;/div&gt;" style="shape=hexagon;perimeter=hexagonPerimeter2;whiteSpace=wrap;html=1;fixedSize=1;fillColor=#ffe6cc;strokeColor=#d79b00;" parent="1" vertex="1">
          <mxGeometry x="280" y="560" width="120" height="80" as="geometry" />
        </mxCell>
        <mxCell id="Zue0cw8jh71YgsHalFJU-27" value="" style="edgeStyle=orthogonalEdgeStyle;rounded=0;orthogonalLoop=1;jettySize=auto;html=1;strokeWidth=2;" parent="1" source="Zue0cw8jh71YgsHalFJU-23" target="Zue0cw8jh71YgsHalFJU-25" edge="1">
          <mxGeometry relative="1" as="geometry" />
        </mxCell>
        <mxCell id="Zue0cw8jh71YgsHalFJU-23" value="reception du mail&lt;div&gt;de reinitialisation&lt;/div&gt;" style="shape=hexagon;perimeter=hexagonPerimeter2;whiteSpace=wrap;html=1;fixedSize=1;fillColor=#ffe6cc;strokeColor=#d79b00;" parent="1" vertex="1">
          <mxGeometry x="480" y="560" width="120" height="80" as="geometry" />
        </mxCell>
        <mxCell id="Zue0cw8jh71YgsHalFJU-25" value="Changement de&amp;nbsp;&lt;div&gt;Mot de passe&amp;nbsp;&lt;/div&gt;" style="shape=hexagon;perimeter=hexagonPerimeter2;whiteSpace=wrap;html=1;fixedSize=1;fillColor=#ffe6cc;strokeColor=#d79b00;" parent="1" vertex="1">
          <mxGeometry x="670" y="560" width="120" height="80" as="geometry" />
        </mxCell>
        <mxCell id="Zue0cw8jh71YgsHalFJU-32" value="Cas d&#39;utilisation Page connexion" style="rounded=1;whiteSpace=wrap;html=1;" parent="1" vertex="1">
          <mxGeometry x="400" y="80" width="330" height="40" as="geometry" />
        </mxCell>
        <mxCell id="Zue0cw8jh71YgsHalFJU-33" style="edgeStyle=orthogonalEdgeStyle;rounded=0;orthogonalLoop=1;jettySize=auto;html=1;exitX=0.5;exitY=1;exitDx=0;exitDy=0;" parent="1" source="Zue0cw8jh71YgsHalFJU-32" target="Zue0cw8jh71YgsHalFJU-32" edge="1">
          <mxGeometry relative="1" as="geometry" />
        </mxCell>
        <mxCell id="Ng6ufq9dJBZELyTH2kSp-11" value="Eleve" style="ellipse;whiteSpace=wrap;html=1;fillColor=#d5e8d4;strokeColor=#82b366;" parent="1" vertex="1">
          <mxGeometry x="60" y="80" width="120" height="80" as="geometry" />
        </mxCell>
        <mxCell id="Ng6ufq9dJBZELyTH2kSp-16" value="" style="edgeStyle=orthogonalEdgeStyle;rounded=0;orthogonalLoop=1;jettySize=auto;html=1;strokeWidth=2;exitX=0.875;exitY=0.063;exitDx=0;exitDy=0;exitPerimeter=0;entryX=0;entryY=0.5;entryDx=0;entryDy=0;" parent="1" source="QbgpvLvngL5jS_qIekFw-10" target="Ng6ufq9dJBZELyTH2kSp-13" edge="1">
          <mxGeometry relative="1" as="geometry">
            <mxPoint x="240" y="870" as="sourcePoint" />
            <mxPoint x="390" y="800" as="targetPoint" />
          </mxGeometry>
        </mxCell>
        <mxCell id="Ng6ufq9dJBZELyTH2kSp-30" style="edgeStyle=orthogonalEdgeStyle;rounded=0;orthogonalLoop=1;jettySize=auto;html=1;entryX=0.5;entryY=0;entryDx=0;entryDy=0;strokeWidth=2;" parent="1" source="Ng6ufq9dJBZELyTH2kSp-12" target="Ng6ufq9dJBZELyTH2kSp-26" edge="1">
          <mxGeometry relative="1" as="geometry" />
        </mxCell>
        <mxCell id="Ng6ufq9dJBZELyTH2kSp-12" value="Professeur/&lt;div&gt;bénévole&lt;div&gt;&lt;br&gt;&lt;/div&gt;&lt;/div&gt;" style="ellipse;whiteSpace=wrap;html=1;fillColor=#d5e8d4;strokeColor=#82b366;" parent="1" vertex="1">
          <mxGeometry x="60" y="760" width="120" height="80" as="geometry" />
        </mxCell>
        <mxCell id="Ng6ufq9dJBZELyTH2kSp-13" value="S’authentifier.&lt;div&gt;avec email/mot de passe&amp;nbsp;&lt;span style=&quot;background-color: transparent; color: light-dark(rgb(0, 0, 0), rgb(255, 255, 255));&quot;&gt;invalide&lt;/span&gt;&lt;/div&gt;" style="shape=hexagon;perimeter=hexagonPerimeter2;whiteSpace=wrap;html=1;fixedSize=1;fillColor=#e1d5e7;strokeColor=#9673a6;" parent="1" vertex="1">
          <mxGeometry x="400" y="760" width="120" height="80" as="geometry" />
        </mxCell>
        <mxCell id="Ng6ufq9dJBZELyTH2kSp-14" value="Message Erreur&lt;div&gt;&amp;nbsp;d&#39;identifiant(s)&lt;div&gt;email/mot de passe&lt;/div&gt;&lt;/div&gt;" style="shape=hexagon;perimeter=hexagonPerimeter2;whiteSpace=wrap;html=1;fixedSize=1;fillColor=#e1d5e7;strokeColor=#9673a6;" parent="1" vertex="1">
          <mxGeometry x="700" y="760" width="130" height="80" as="geometry" />
        </mxCell>
        <mxCell id="Ng6ufq9dJBZELyTH2kSp-20" value="Identifiants Valide" style="shape=hexagon;perimeter=hexagonPerimeter2;whiteSpace=wrap;html=1;fixedSize=1;fillColor=#f8cecc;strokeColor=#b85450;" parent="1" vertex="1">
          <mxGeometry x="400" y="920" width="120" height="80" as="geometry" />
        </mxCell>
        <mxCell id="Ng6ufq9dJBZELyTH2kSp-22" value="Accés a la page Dashboard" style="shape=hexagon;perimeter=hexagonPerimeter2;whiteSpace=wrap;html=1;fixedSize=1;fillColor=#f8cecc;strokeColor=#b85450;" parent="1" vertex="1">
          <mxGeometry x="700" y="920" width="120" height="80" as="geometry" />
        </mxCell>
        <mxCell id="Ng6ufq9dJBZELyTH2kSp-31" value="" style="edgeStyle=orthogonalEdgeStyle;rounded=0;orthogonalLoop=1;jettySize=auto;html=1;strokeWidth=2;" parent="1" source="Ng6ufq9dJBZELyTH2kSp-26" target="Ng6ufq9dJBZELyTH2kSp-27" edge="1">
          <mxGeometry relative="1" as="geometry" />
        </mxCell>
        <mxCell id="Ng6ufq9dJBZELyTH2kSp-26" value="Mot de passe&amp;nbsp;&lt;div&gt;oublier&amp;nbsp;&lt;/div&gt;" style="shape=hexagon;perimeter=hexagonPerimeter2;whiteSpace=wrap;html=1;fixedSize=1;fillColor=#ffe6cc;strokeColor=#d79b00;" parent="1" vertex="1">
          <mxGeometry x="60" y="1160" width="120" height="80" as="geometry" />
        </mxCell>
        <mxCell id="Ng6ufq9dJBZELyTH2kSp-32" value="" style="edgeStyle=orthogonalEdgeStyle;rounded=0;orthogonalLoop=1;jettySize=auto;html=1;strokeWidth=2;" parent="1" source="Ng6ufq9dJBZELyTH2kSp-27" target="Ng6ufq9dJBZELyTH2kSp-28" edge="1">
          <mxGeometry relative="1" as="geometry" />
        </mxCell>
        <mxCell id="Ng6ufq9dJBZELyTH2kSp-27" value="envoi vers reinitialisation&amp;nbsp;&lt;div&gt;mot de passe&amp;nbsp;&amp;nbsp;&lt;/div&gt;" style="shape=hexagon;perimeter=hexagonPerimeter2;whiteSpace=wrap;html=1;fixedSize=1;fillColor=#ffe6cc;strokeColor=#d79b00;" parent="1" vertex="1">
          <mxGeometry x="290" y="1160" width="120" height="80" as="geometry" />
        </mxCell>
        <mxCell id="Ng6ufq9dJBZELyTH2kSp-33" value="" style="edgeStyle=orthogonalEdgeStyle;rounded=0;orthogonalLoop=1;jettySize=auto;html=1;strokeWidth=2;" parent="1" source="Ng6ufq9dJBZELyTH2kSp-28" target="Ng6ufq9dJBZELyTH2kSp-29" edge="1">
          <mxGeometry relative="1" as="geometry" />
        </mxCell>
        <mxCell id="Ng6ufq9dJBZELyTH2kSp-28" value="reception du mail&lt;div&gt;de reinitialisation&lt;/div&gt;" style="shape=hexagon;perimeter=hexagonPerimeter2;whiteSpace=wrap;html=1;fixedSize=1;fillColor=#ffe6cc;strokeColor=#d79b00;" parent="1" vertex="1">
          <mxGeometry x="490" y="1160" width="120" height="80" as="geometry" />
        </mxCell>
        <mxCell id="Ng6ufq9dJBZELyTH2kSp-29" value="Changement de&amp;nbsp;&lt;div&gt;Mot de passe&amp;nbsp;&lt;/div&gt;" style="shape=hexagon;perimeter=hexagonPerimeter2;whiteSpace=wrap;html=1;fixedSize=1;fillColor=#ffe6cc;strokeColor=#d79b00;" parent="1" vertex="1">
          <mxGeometry x="700" y="1160" width="120" height="80" as="geometry" />
        </mxCell>
        <mxCell id="Ng6ufq9dJBZELyTH2kSp-40" value="" style="endArrow=classic;html=1;rounded=0;entryX=0;entryY=0.5;entryDx=0;entryDy=0;strokeWidth=2;exitX=0.933;exitY=0.188;exitDx=0;exitDy=0;exitPerimeter=0;" parent="1" source="QbgpvLvngL5jS_qIekFw-13" target="Zue0cw8jh71YgsHalFJU-5" edge="1">
          <mxGeometry width="50" height="50" relative="1" as="geometry">
            <mxPoint x="390" y="410" as="sourcePoint" />
            <mxPoint x="440" y="360" as="targetPoint" />
          </mxGeometry>
        </mxCell>
        <mxCell id="QbgpvLvngL5jS_qIekFw-1" value="" style="endArrow=classic;html=1;rounded=0;exitX=0.658;exitY=0.988;exitDx=0;exitDy=0;exitPerimeter=0;entryX=0;entryY=0.5;entryDx=0;entryDy=0;strokeWidth=2;" parent="1" source="Ng6ufq9dJBZELyTH2kSp-11" target="QbgpvLvngL5jS_qIekFw-13" edge="1">
          <mxGeometry width="50" height="50" relative="1" as="geometry">
            <mxPoint x="520" y="360" as="sourcePoint" />
            <mxPoint x="570" y="310" as="targetPoint" />
          </mxGeometry>
        </mxCell>
        <mxCell id="QbgpvLvngL5jS_qIekFw-2" value="" style="endArrow=classic;html=1;rounded=0;exitX=0.908;exitY=0.2;exitDx=0;exitDy=0;exitPerimeter=0;strokeWidth=2;" parent="1" source="Zue0cw8jh71YgsHalFJU-5" edge="1">
          <mxGeometry width="50" height="50" relative="1" as="geometry">
            <mxPoint x="520" y="360" as="sourcePoint" />
            <mxPoint x="740" y="176" as="targetPoint" />
          </mxGeometry>
        </mxCell>
        <mxCell id="QbgpvLvngL5jS_qIekFw-6" value="" style="endArrow=classic;html=1;rounded=0;strokeWidth=2;exitX=0.115;exitY=0.825;exitDx=0;exitDy=0;exitPerimeter=0;" parent="1" source="Ng6ufq9dJBZELyTH2kSp-14" edge="1">
          <mxGeometry width="50" height="50" relative="1" as="geometry">
            <mxPoint x="690" y="826" as="sourcePoint" />
            <mxPoint x="330" y="920" as="targetPoint" />
          </mxGeometry>
        </mxCell>
        <mxCell id="QbgpvLvngL5jS_qIekFw-7" value="" style="endArrow=classic;html=1;rounded=0;strokeWidth=2;" parent="1" edge="1">
          <mxGeometry width="50" height="50" relative="1" as="geometry">
            <mxPoint x="300" y="959" as="sourcePoint" />
            <mxPoint x="400" y="959" as="targetPoint" />
          </mxGeometry>
        </mxCell>
        <mxCell id="QbgpvLvngL5jS_qIekFw-9" value="" style="endArrow=classic;html=1;rounded=0;exitX=1;exitY=0.5;exitDx=0;exitDy=0;entryX=0;entryY=0.5;entryDx=0;entryDy=0;strokeWidth=2;" parent="1" source="Ng6ufq9dJBZELyTH2kSp-20" target="Ng6ufq9dJBZELyTH2kSp-22" edge="1">
          <mxGeometry width="50" height="50" relative="1" as="geometry">
            <mxPoint x="520" y="860" as="sourcePoint" />
            <mxPoint x="570" y="810" as="targetPoint" />
          </mxGeometry>
        </mxCell>
        <mxCell id="QbgpvLvngL5jS_qIekFw-10" value="s&#39;authentifier" style="shape=hexagon;perimeter=hexagonPerimeter2;whiteSpace=wrap;html=1;fixedSize=1;fillColor=#f5f5f5;fontColor=#333333;strokeColor=#666666;" parent="1" vertex="1">
          <mxGeometry x="200" y="880" width="120" height="80" as="geometry" />
        </mxCell>
        <mxCell id="QbgpvLvngL5jS_qIekFw-11" value="" style="endArrow=classic;html=1;rounded=0;exitX=1;exitY=0.5;exitDx=0;exitDy=0;strokeWidth=2;" parent="1" source="Ng6ufq9dJBZELyTH2kSp-12" edge="1">
          <mxGeometry width="50" height="50" relative="1" as="geometry">
            <mxPoint x="520" y="760" as="sourcePoint" />
            <mxPoint x="200" y="920" as="targetPoint" />
          </mxGeometry>
        </mxCell>
        <mxCell id="QbgpvLvngL5jS_qIekFw-12" value="" style="endArrow=classic;html=1;rounded=0;strokeWidth=2;exitX=0.925;exitY=0.213;exitDx=0;exitDy=0;exitPerimeter=0;entryX=0.085;entryY=0.2;entryDx=0;entryDy=0;entryPerimeter=0;" parent="1" source="Ng6ufq9dJBZELyTH2kSp-13" target="Ng6ufq9dJBZELyTH2kSp-14" edge="1">
          <mxGeometry width="50" height="50" relative="1" as="geometry">
            <mxPoint x="530" y="780" as="sourcePoint" />
            <mxPoint x="690" y="780" as="targetPoint" />
          </mxGeometry>
        </mxCell>
        <mxCell id="QbgpvLvngL5jS_qIekFw-13" value="s&#39;authentifier" style="shape=hexagon;perimeter=hexagonPerimeter2;whiteSpace=wrap;html=1;fixedSize=1;fillColor=#f5f5f5;fontColor=#333333;strokeColor=#666666;" parent="1" vertex="1">
          <mxGeometry x="210" y="250" width="120" height="80" as="geometry" />
        </mxCell>
        <mxCell id="QbgpvLvngL5jS_qIekFw-15" value="" style="endArrow=classic;html=1;rounded=0;exitX=0.9;exitY=0.838;exitDx=0;exitDy=0;exitPerimeter=0;entryX=0;entryY=0.5;entryDx=0;entryDy=0;strokeWidth=2;" parent="1" source="QbgpvLvngL5jS_qIekFw-13" target="Zue0cw8jh71YgsHalFJU-13" edge="1">
          <mxGeometry width="50" height="50" relative="1" as="geometry">
            <mxPoint x="520" y="360" as="sourcePoint" />
            <mxPoint x="570" y="310" as="targetPoint" />
          </mxGeometry>
        </mxCell>
        <mxCell id="OBNKL77yJkihkaTxdUHG-4" value="" style="edgeStyle=orthogonalEdgeStyle;rounded=0;orthogonalLoop=1;jettySize=auto;html=1;strokeWidth=2;" edge="1" parent="1" source="OBNKL77yJkihkaTxdUHG-1" target="OBNKL77yJkihkaTxdUHG-2">
          <mxGeometry relative="1" as="geometry" />
        </mxCell>
        <mxCell id="OBNKL77yJkihkaTxdUHG-1" value="S&#39;inscrire" style="shape=hexagon;perimeter=hexagonPerimeter2;whiteSpace=wrap;html=1;fixedSize=1;fillColor=#fff2cc;strokeColor=#d6b656;" vertex="1" parent="1">
          <mxGeometry x="190" y="450" width="120" height="80" as="geometry" />
        </mxCell>
        <mxCell id="OBNKL77yJkihkaTxdUHG-2" value="Accès au formulaire d&#39;inscription" style="shape=hexagon;perimeter=hexagonPerimeter2;whiteSpace=wrap;html=1;fixedSize=1;fillColor=#fff2cc;strokeColor=#d6b656;" vertex="1" parent="1">
          <mxGeometry x="414" y="450" width="120" height="80" as="geometry" />
        </mxCell>
        <mxCell id="OBNKL77yJkihkaTxdUHG-3" value="" style="endArrow=classic;html=1;rounded=0;exitX=0.5;exitY=1;exitDx=0;exitDy=0;entryX=0;entryY=0.5;entryDx=0;entryDy=0;strokeWidth=2;" edge="1" parent="1" source="Ng6ufq9dJBZELyTH2kSp-11" target="OBNKL77yJkihkaTxdUHG-1">
          <mxGeometry width="50" height="50" relative="1" as="geometry">
            <mxPoint x="680" y="450" as="sourcePoint" />
            <mxPoint x="730" y="400" as="targetPoint" />
          </mxGeometry>
        </mxCell>
        <mxCell id="OBNKL77yJkihkaTxdUHG-8" value="" style="edgeStyle=orthogonalEdgeStyle;rounded=0;orthogonalLoop=1;jettySize=auto;html=1;strokeWidth=2;" edge="1" parent="1" source="OBNKL77yJkihkaTxdUHG-5" target="OBNKL77yJkihkaTxdUHG-6">
          <mxGeometry relative="1" as="geometry" />
        </mxCell>
        <mxCell id="OBNKL77yJkihkaTxdUHG-5" value="&#xa;&lt;span style=&quot;color: rgb(0, 0, 0); font-family: Helvetica; font-size: 12px; font-style: normal; font-variant-ligatures: normal; font-variant-caps: normal; font-weight: 400; letter-spacing: normal; orphans: 2; text-align: center; text-indent: 0px; text-transform: none; widows: 2; word-spacing: 0px; -webkit-text-stroke-width: 0px; white-space: normal; background-color: rgb(236, 236, 236); text-decoration-thickness: initial; text-decoration-style: initial; text-decoration-color: initial; display: inline !important; float: none;&quot;&gt;S&#39;inscrire&lt;/span&gt;&#xa;&#xa;" style="shape=hexagon;perimeter=hexagonPerimeter2;whiteSpace=wrap;html=1;fixedSize=1;fillColor=#fff2cc;strokeColor=#d6b656;" vertex="1" parent="1">
          <mxGeometry x="220" y="1040" width="120" height="80" as="geometry" />
        </mxCell>
        <mxCell id="OBNKL77yJkihkaTxdUHG-6" value="Accès au formulaire d&#39;inscription" style="shape=hexagon;perimeter=hexagonPerimeter2;whiteSpace=wrap;html=1;fixedSize=1;fillColor=#fff2cc;strokeColor=#d6b656;" vertex="1" parent="1">
          <mxGeometry x="430" y="1040" width="120" height="80" as="geometry" />
        </mxCell>
        <mxCell id="OBNKL77yJkihkaTxdUHG-7" value="" style="endArrow=classic;html=1;rounded=0;exitX=0.567;exitY=0.963;exitDx=0;exitDy=0;exitPerimeter=0;entryX=0;entryY=0.5;entryDx=0;entryDy=0;strokeWidth=2;" edge="1" parent="1" source="Ng6ufq9dJBZELyTH2kSp-12" target="OBNKL77yJkihkaTxdUHG-5">
          <mxGeometry width="50" height="50" relative="1" as="geometry">
            <mxPoint x="680" y="1050" as="sourcePoint" />
            <mxPoint x="730" y="1000" as="targetPoint" />
          </mxGeometry>
        </mxCell>
      </root>
    </mxGraphModel>
  </diagram>
</mxfile>
